<?xml version="1.0" encoding="us-ascii" standalone="no"?><svg xmlns="http://www.w3.org/2000/svg" xmlns:xlink="http://www.w3.org/1999/xlink" contentStyleType="text/css" height="1339px" preserveAspectRatio="none" style="width:2084px;height:1339px;background:#FFFFFF;" version="1.1" viewBox="0 0 2084 1339" width="2084px" zoomAndPan="magnify"><defs/><g><text fill="#000000" font-family="sans-serif" font-size="14" font-weight="bold" lengthAdjust="spacing" textLength="560" x="758" y="27.9951">Sequence Diagram: Adaptive Graph Contrastive Recommendation Flow</text><rect fill="none" height="148.4688" style="stroke:#000000;stroke-width:1.5;" width="2057" x="10" y="970.9453"/><line style="stroke:#005A9E;stroke-width:0.5;stroke-dasharray:5.0,5.0;" x1="47" x2="47" y1="120.8906" y2="1244.9453"/><line style="stroke:#005A9E;stroke-width:0.5;stroke-dasharray:5.0,5.0;" x1="323" x2="323" y1="120.8906" y2="1244.9453"/><line style="stroke:#005A9E;stroke-width:0.5;stroke-dasharray:5.0,5.0;" x1="550.5" x2="550.5" y1="120.8906" y2="1244.9453"/><line style="stroke:#005A9E;stroke-width:0.5;stroke-dasharray:5.0,5.0;" x1="855" x2="855" y1="120.8906" y2="1244.9453"/><line style="stroke:#005A9E;stroke-width:0.5;stroke-dasharray:5.0,5.0;" x1="1099.5" x2="1099.5" y1="120.8906" y2="1244.9453"/><line style="stroke:#005A9E;stroke-width:0.5;stroke-dasharray:5.0,5.0;" x1="1383" x2="1383" y1="120.8906" y2="1244.9453"/><line style="stroke:#005A9E;stroke-width:0.5;stroke-dasharray:5.0,5.0;" x1="1702" x2="1702" y1="120.8906" y2="1244.9453"/><line style="stroke:#005A9E;stroke-width:0.5;stroke-dasharray:5.0,5.0;" x1="1999" x2="1999" y1="120.8906" y2="1244.9453"/><text fill="#000000" font-family="sans-serif" font-size="14" lengthAdjust="spacing" textLength="32" x="28.5" y="117.5889">User</text><ellipse cx="47.5" cy="60.0938" fill="#E2E2F0" rx="16" ry="16" style="stroke:#181818;stroke-width:0.5;"/><path d="M47.5,80.0938 C51.5,80.0938 54.5,80.0938 58.5,76.0938 C66.5,76.0938 74.5,84.0938 74.5,92.0938 L74.5,96.0938 C74.5,100.0938 70.5,104.0938 66.5,104.0938 L28.5,104.0938 C24.5,104.0938 20.5,100.0938 20.5,96.0938 L20.5,92.0938 C20.5,84.0938 28.5,76.0938 36.5,76.0938 C40.5,80.0938 43.5,80.0938 47.5,80.0938 " fill="#E2E2F0" style="stroke:#181818;stroke-width:0.5;"/><text fill="#000000" font-family="sans-serif" font-size="14" lengthAdjust="spacing" textLength="32" x="28.5" y="1256.9404">User</text><ellipse cx="47.5" cy="1276.7422" fill="#E2E2F0" rx="16" ry="16" style="stroke:#181818;stroke-width:0.5;"/><path d="M47.5,1296.7422 C51.5,1296.7422 54.5,1296.7422 58.5,1292.7422 C66.5,1292.7422 74.5,1300.7422 74.5,1308.7422 L74.5,1312.7422 C74.5,1316.7422 70.5,1320.7422 66.5,1320.7422 L28.5,1320.7422 C24.5,1320.7422 20.5,1316.7422 20.5,1312.7422 L20.5,1308.7422 C20.5,1300.7422 28.5,1292.7422 36.5,1292.7422 C40.5,1296.7422 43.5,1296.7422 47.5,1296.7422 " fill="#E2E2F0" style="stroke:#181818;stroke-width:0.5;"/><rect fill="#E8F1FA" height="46.5938" rx="2.5" ry="2.5" style="stroke:#005A9E;stroke-width:0.5;" width="129" x="259" y="73.2969"/><text fill="#003366" font-family="sans-serif" font-size="14" lengthAdjust="spacing" textLength="115" x="266" y="93.292">System Interface</text><text fill="#003366" font-family="sans-serif" font-size="14" lengthAdjust="spacing" textLength="63" x="292" y="109.5889">(UI Layer)</text><rect fill="#E8F1FA" height="46.5938" rx="2.5" ry="2.5" style="stroke:#005A9E;stroke-width:0.5;" width="129" x="259" y="1243.9453"/><text fill="#003366" font-family="sans-serif" font-size="14" lengthAdjust="spacing" textLength="115" x="266" y="1263.9404">System Interface</text><text fill="#003366" font-family="sans-serif" font-size="14" lengthAdjust="spacing" textLength="63" x="292" y="1280.2373">(UI Layer)</text><rect fill="#E8F1FA" height="46.5938" rx="2.5" ry="2.5" style="stroke:#005A9E;stroke-width:0.5;" width="150" x="475.5" y="73.2969"/><text fill="#003366" font-family="sans-serif" font-size="14" lengthAdjust="spacing" textLength="136" x="482.5" y="93.292">Data Preprocessing</text><text fill="#003366" font-family="sans-serif" font-size="14" lengthAdjust="spacing" textLength="51" x="525" y="109.5889">Module</text><rect fill="#E8F1FA" height="46.5938" rx="2.5" ry="2.5" style="stroke:#005A9E;stroke-width:0.5;" width="150" x="475.5" y="1243.9453"/><text fill="#003366" font-family="sans-serif" font-size="14" lengthAdjust="spacing" textLength="136" x="482.5" y="1263.9404">Data Preprocessing</text><text fill="#003366" font-family="sans-serif" font-size="14" lengthAdjust="spacing" textLength="51" x="525" y="1280.2373">Module</text><rect fill="#E8F1FA" height="46.5938" rx="2.5" ry="2.5" style="stroke:#005A9E;stroke-width:0.5;" width="149" x="781" y="73.2969"/><text fill="#003366" font-family="sans-serif" font-size="14" lengthAdjust="spacing" textLength="135" x="788" y="93.292">Graph Construction</text><text fill="#003366" font-family="sans-serif" font-size="14" lengthAdjust="spacing" textLength="51" x="830" y="109.5889">Module</text><rect fill="#E8F1FA" height="46.5938" rx="2.5" ry="2.5" style="stroke:#005A9E;stroke-width:0.5;" width="149" x="781" y="1243.9453"/><text fill="#003366" font-family="sans-serif" font-size="14" lengthAdjust="spacing" textLength="135" x="788" y="1263.9404">Graph Construction</text><text fill="#003366" font-family="sans-serif" font-size="14" lengthAdjust="spacing" textLength="51" x="830" y="1280.2373">Module</text><rect fill="#E8F1FA" height="46.5938" rx="2.5" ry="2.5" style="stroke:#005A9E;stroke-width:0.5;" width="156" x="1021.5" y="73.2969"/><text fill="#003366" font-family="sans-serif" font-size="14" lengthAdjust="spacing" textLength="142" x="1028.5" y="93.292">GNN Representation</text><text fill="#003366" font-family="sans-serif" font-size="14" lengthAdjust="spacing" textLength="59" x="1070" y="109.5889">Learning</text><rect fill="#E8F1FA" height="46.5938" rx="2.5" ry="2.5" style="stroke:#005A9E;stroke-width:0.5;" width="156" x="1021.5" y="1243.9453"/><text fill="#003366" font-family="sans-serif" font-size="14" lengthAdjust="spacing" textLength="142" x="1028.5" y="1263.9404">GNN Representation</text><text fill="#003366" font-family="sans-serif" font-size="14" lengthAdjust="spacing" textLength="59" x="1070" y="1280.2373">Learning</text><rect fill="#E8F1FA" height="46.5938" rx="2.5" ry="2.5" style="stroke:#005A9E;stroke-width:0.5;" width="155" x="1306" y="73.2969"/><text fill="#003366" font-family="sans-serif" font-size="14" lengthAdjust="spacing" textLength="141" x="1313" y="93.292">Contrastive Learning</text><text fill="#003366" font-family="sans-serif" font-size="14" lengthAdjust="spacing" textLength="51" x="1358" y="109.5889">Module</text><rect fill="#E8F1FA" height="46.5938" rx="2.5" ry="2.5" style="stroke:#005A9E;stroke-width:0.5;" width="155" x="1306" y="1243.9453"/><text fill="#003366" font-family="sans-serif" font-size="14" lengthAdjust="spacing" textLength="141" x="1313" y="1263.9404">Contrastive Learning</text><text fill="#003366" font-family="sans-serif" font-size="14" lengthAdjust="spacing" textLength="51" x="1358" y="1280.2373">Module</text><rect fill="#E8F1FA" height="30.2969" rx="2.5" ry="2.5" style="stroke:#005A9E;stroke-width:0.5;" width="189" x="1608" y="89.5938"/><text fill="#003366" font-family="sans-serif" font-size="14" lengthAdjust="spacing" textLength="175" x="1615" y="109.5889">Recommendation Engine</text><rect fill="#E8F1FA" height="30.2969" rx="2.5" ry="2.5" style="stroke:#005A9E;stroke-width:0.5;" width="189" x="1608" y="1243.9453"/><text fill="#003366" font-family="sans-serif" font-size="14" lengthAdjust="spacing" textLength="175" x="1615" y="1263.9404">Recommendation Engine</text><text fill="#000000" font-family="sans-serif" font-size="14" lengthAdjust="spacing" textLength="109" x="1942" y="101.292">Graph / Context</text><text fill="#000000" font-family="sans-serif" font-size="14" lengthAdjust="spacing" textLength="66" x="1963.5" y="117.5889">Database</text><path d="M1981.5,52.2969 C1981.5,42.2969 1999.5,42.2969 1999.5,42.2969 C1999.5,42.2969 2017.5,42.2969 2017.5,52.2969 L2017.5,78.2969 C2017.5,88.2969 1999.5,88.2969 1999.5,88.2969 C1999.5,88.2969 1981.5,88.2969 1981.5,78.2969 L1981.5,52.2969 " fill="#E2E2F0" style="stroke:#181818;stroke-width:1.5;"/><path d="M1981.5,52.2969 C1981.5,62.2969 1999.5,62.2969 1999.5,62.2969 C1999.5,62.2969 2017.5,62.2969 2017.5,52.2969 " fill="none" style="stroke:#181818;stroke-width:1.5;"/><text fill="#000000" font-family="sans-serif" font-size="14" lengthAdjust="spacing" textLength="109" x="1942" y="1256.9404">Graph / Context</text><text fill="#000000" font-family="sans-serif" font-size="14" lengthAdjust="spacing" textLength="66" x="1963.5" y="1273.2373">Database</text><path d="M1981.5,1286.5391 C1981.5,1276.5391 1999.5,1276.5391 1999.5,1276.5391 C1999.5,1276.5391 2017.5,1276.5391 2017.5,1286.5391 L2017.5,1312.5391 C2017.5,1322.5391 1999.5,1322.5391 1999.5,1322.5391 C1999.5,1322.5391 1981.5,1322.5391 1981.5,1312.5391 L1981.5,1286.5391 " fill="#E2E2F0" style="stroke:#181818;stroke-width:1.5;"/><path d="M1981.5,1286.5391 C1981.5,1296.5391 1999.5,1296.5391 1999.5,1296.5391 C1999.5,1296.5391 2017.5,1296.5391 2017.5,1286.5391 " fill="none" style="stroke:#181818;stroke-width:1.5;"/><rect fill="#EEEEEE" height="3" style="stroke:#EEEEEE;stroke-width:1.0;" width="2077" x="0" y="151.457"/><line style="stroke:#000000;stroke-width:1.0;" x1="0" x2="2077" y1="151.457" y2="151.457"/><line style="stroke:#000000;stroke-width:1.0;" x1="0" x2="2077" y1="154.457" y2="154.457"/><rect fill="#EEEEEE" height="23.1328" style="stroke:#000000;stroke-width:2.0;" width="119" x="979" y="140.8906"/><text fill="#000000" font-family="sans-serif" font-size="13" font-weight="bold" lengthAdjust="spacing" textLength="100" x="985" y="156.9575">Context Input</text><polygon fill="#005A9E" points="311.5,191.1563,321.5,195.1563,311.5,199.1563,315.5,195.1563" style="stroke:#005A9E;stroke-width:1.0;"/><line style="stroke:#005A9E;stroke-width:2.0;" x1="47.5" x2="317.5" y1="195.1563" y2="195.1563"/><text fill="#000000" font-family="sans-serif" font-size="13" lengthAdjust="spacing" textLength="232" x="54.5" y="190.0903">Submit context and preference data</text><polygon fill="#005A9E" points="538.5,220.2891,548.5,224.2891,538.5,228.2891,542.5,224.2891" style="stroke:#005A9E;stroke-width:1.0;"/><line style="stroke:#005A9E;stroke-width:2.0;" x1="323.5" x2="544.5" y1="224.2891" y2="224.2891"/><text fill="#000000" font-family="sans-serif" font-size="13" lengthAdjust="spacing" textLength="203" x="330.5" y="219.2231">Send raw contextual + POI data</text><rect fill="#EEEEEE" height="3" style="stroke:#EEEEEE;stroke-width:1.0;" width="2077" x="0" y="252.8555"/><line style="stroke:#000000;stroke-width:1.0;" x1="0" x2="2077" y1="252.8555" y2="252.8555"/><line style="stroke:#000000;stroke-width:1.0;" x1="0" x2="2077" y1="255.8555" y2="255.8555"/><rect fill="#EEEEEE" height="23.1328" style="stroke:#000000;stroke-width:2.0;" width="165" x="956" y="242.2891"/><text fill="#000000" font-family="sans-serif" font-size="13" font-weight="bold" lengthAdjust="spacing" textLength="146" x="962" y="258.356">Data Preprocessing</text><polygon fill="#005A9E" points="1987.5,292.5547,1997.5,296.5547,1987.5,300.5547,1991.5,296.5547" style="stroke:#005A9E;stroke-width:1.0;"/><line style="stroke:#005A9E;stroke-width:2.0;" x1="550.5" x2="1993.5" y1="296.5547" y2="296.5547"/><text fill="#000000" font-family="sans-serif" font-size="13" lengthAdjust="spacing" textLength="215" x="557.5" y="291.4888">Fetch contextual &amp; historical data</text><line style="stroke:#005A9E;stroke-width:2.0;" x1="550.5" x2="592.5" y1="325.6875" y2="325.6875"/><line style="stroke:#005A9E;stroke-width:2.0;" x1="592.5" x2="592.5" y1="325.6875" y2="338.6875"/><line style="stroke:#005A9E;stroke-width:2.0;" x1="551.5" x2="592.5" y1="338.6875" y2="338.6875"/><polygon fill="#005A9E" points="561.5,334.6875,551.5,338.6875,561.5,342.6875,557.5,338.6875" style="stroke:#005A9E;stroke-width:1.0;"/><text fill="#000000" font-family="sans-serif" font-size="13" lengthAdjust="spacing" textLength="204" x="557.5" y="320.6216">Clean, normalize, and filter data</text><polygon fill="#005A9E" points="843.5,363.8203,853.5,367.8203,843.5,371.8203,847.5,367.8203" style="stroke:#005A9E;stroke-width:1.0;"/><line style="stroke:#005A9E;stroke-width:2.0;" x1="550.5" x2="849.5" y1="367.8203" y2="367.8203"/><text fill="#000000" font-family="sans-serif" font-size="13" lengthAdjust="spacing" textLength="281" x="557.5" y="362.7544">Send structured data for graph construction</text><rect fill="#EEEEEE" height="3" style="stroke:#EEEEEE;stroke-width:1.0;" width="2077" x="0" y="396.3867"/><line style="stroke:#000000;stroke-width:1.0;" x1="0" x2="2077" y1="396.3867" y2="396.3867"/><line style="stroke:#000000;stroke-width:1.0;" x1="0" x2="2077" y1="399.3867" y2="399.3867"/><rect fill="#EEEEEE" height="23.1328" style="stroke:#000000;stroke-width:2.0;" width="162" x="957.5" y="385.8203"/><text fill="#000000" font-family="sans-serif" font-size="13" font-weight="bold" lengthAdjust="spacing" textLength="143" x="963.5" y="401.8872">Graph Construction</text><polygon fill="#005A9E" points="1987.5,436.0859,1997.5,440.0859,1987.5,444.0859,1991.5,440.0859" style="stroke:#005A9E;stroke-width:1.0;"/><line style="stroke:#005A9E;stroke-width:2.0;" x1="855.5" x2="1993.5" y1="440.0859" y2="440.0859"/><text fill="#000000" font-family="sans-serif" font-size="13" lengthAdjust="spacing" textLength="260" x="862.5" y="435.02">Retrieve existing graph nodes and edges</text><line style="stroke:#005A9E;stroke-width:2.0;" x1="855.5" x2="897.5" y1="469.2188" y2="469.2188"/><line style="stroke:#005A9E;stroke-width:2.0;" x1="897.5" x2="897.5" y1="469.2188" y2="482.2188"/><line style="stroke:#005A9E;stroke-width:2.0;" x1="856.5" x2="897.5" y1="482.2188" y2="482.2188"/><polygon fill="#005A9E" points="866.5,478.2188,856.5,482.2188,866.5,486.2188,862.5,482.2188" style="stroke:#005A9E;stroke-width:1.0;"/><text fill="#000000" font-family="sans-serif" font-size="13" lengthAdjust="spacing" textLength="230" x="862.5" y="464.1528">Build / update heterogeneous graph</text><polygon fill="#005A9E" points="1087.5,507.3516,1097.5,511.3516,1087.5,515.3516,1091.5,511.3516" style="stroke:#005A9E;stroke-width:1.0;"/><line style="stroke:#005A9E;stroke-width:2.0;" x1="855.5" x2="1093.5" y1="511.3516" y2="511.3516"/><text fill="#000000" font-family="sans-serif" font-size="13" lengthAdjust="spacing" textLength="171" x="862.5" y="506.2856">Forward constructed graph</text><rect fill="#EEEEEE" height="3" style="stroke:#EEEEEE;stroke-width:1.0;" width="2077" x="0" y="539.918"/><line style="stroke:#000000;stroke-width:1.0;" x1="0" x2="2077" y1="539.918" y2="539.918"/><line style="stroke:#000000;stroke-width:1.0;" x1="0" x2="2077" y1="542.918" y2="542.918"/><rect fill="#EEEEEE" height="23.1328" style="stroke:#000000;stroke-width:2.0;" width="239" x="919" y="529.3516"/><text fill="#000000" font-family="sans-serif" font-size="13" font-weight="bold" lengthAdjust="spacing" textLength="220" x="925" y="545.4185">GNN Representation Learning</text><line style="stroke:#005A9E;stroke-width:2.0;" x1="1099.5" x2="1141.5" y1="583.6172" y2="583.6172"/><line style="stroke:#005A9E;stroke-width:2.0;" x1="1141.5" x2="1141.5" y1="583.6172" y2="596.6172"/><line style="stroke:#005A9E;stroke-width:2.0;" x1="1100.5" x2="1141.5" y1="596.6172" y2="596.6172"/><polygon fill="#005A9E" points="1110.5,592.6172,1100.5,596.6172,1110.5,600.6172,1106.5,596.6172" style="stroke:#005A9E;stroke-width:1.0;"/><text fill="#000000" font-family="sans-serif" font-size="13" lengthAdjust="spacing" textLength="270" x="1106.5" y="578.5513">Generate embeddings (user/item/context)</text><polygon fill="#005A9E" points="1371.5,621.75,1381.5,625.75,1371.5,629.75,1375.5,625.75" style="stroke:#005A9E;stroke-width:1.0;"/><line style="stroke:#005A9E;stroke-width:2.0;" x1="1099.5" x2="1377.5" y1="625.75" y2="625.75"/><text fill="#000000" font-family="sans-serif" font-size="13" lengthAdjust="spacing" textLength="244" x="1106.5" y="620.6841">Send embeddings and augment views</text><rect fill="#EEEEEE" height="3" style="stroke:#EEEEEE;stroke-width:1.0;" width="2077" x="0" y="654.3164"/><line style="stroke:#000000;stroke-width:1.0;" x1="0" x2="2077" y1="654.3164" y2="654.3164"/><line style="stroke:#000000;stroke-width:1.0;" x1="0" x2="2077" y1="657.3164" y2="657.3164"/><rect fill="#EEEEEE" height="23.1328" style="stroke:#000000;stroke-width:2.0;" width="172" x="952.5" y="643.75"/><text fill="#000000" font-family="sans-serif" font-size="13" font-weight="bold" lengthAdjust="spacing" textLength="153" x="958.5" y="659.8169">Contrastive Learning</text><line style="stroke:#005A9E;stroke-width:2.0;" x1="1383.5" x2="1425.5" y1="698.0156" y2="698.0156"/><line style="stroke:#005A9E;stroke-width:2.0;" x1="1425.5" x2="1425.5" y1="698.0156" y2="711.0156"/><line style="stroke:#005A9E;stroke-width:2.0;" x1="1384.5" x2="1425.5" y1="711.0156" y2="711.0156"/><polygon fill="#005A9E" points="1394.5,707.0156,1384.5,711.0156,1394.5,715.0156,1390.5,711.0156" style="stroke:#005A9E;stroke-width:1.0;"/><text fill="#000000" font-family="sans-serif" font-size="13" lengthAdjust="spacing" textLength="305" x="1390.5" y="692.9497">Optimize embeddings via contrastive objectives</text><polygon fill="#005A9E" points="1690.5,736.1484,1700.5,740.1484,1690.5,744.1484,1694.5,740.1484" style="stroke:#005A9E;stroke-width:1.0;"/><line style="stroke:#005A9E;stroke-width:2.0;" x1="1383.5" x2="1696.5" y1="740.1484" y2="740.1484"/><text fill="#000000" font-family="sans-serif" font-size="13" lengthAdjust="spacing" textLength="288" x="1390.5" y="735.0825">Forward optimized user-item representations</text><rect fill="#EEEEEE" height="3" style="stroke:#EEEEEE;stroke-width:1.0;" width="2077" x="0" y="768.7148"/><line style="stroke:#000000;stroke-width:1.0;" x1="0" x2="2077" y1="768.7148" y2="768.7148"/><line style="stroke:#000000;stroke-width:1.0;" x1="0" x2="2077" y1="771.7148" y2="771.7148"/><rect fill="#EEEEEE" height="23.1328" style="stroke:#000000;stroke-width:2.0;" width="234" x="921.5" y="758.1484"/><text fill="#000000" font-family="sans-serif" font-size="13" font-weight="bold" lengthAdjust="spacing" textLength="215" x="927.5" y="774.2153">Recommendation Generation</text><polygon fill="#005A9E" points="1987.5,808.4141,1997.5,812.4141,1987.5,816.4141,1991.5,812.4141" style="stroke:#005A9E;stroke-width:1.0;"/><line style="stroke:#005A9E;stroke-width:2.0;" x1="1702.5" x2="1993.5" y1="812.4141" y2="812.4141"/><text fill="#000000" font-family="sans-serif" font-size="13" lengthAdjust="spacing" textLength="209" x="1709.5" y="807.3481">Retrieve candidate item features</text><line style="stroke:#005A9E;stroke-width:2.0;" x1="1702.5" x2="1744.5" y1="841.5469" y2="841.5469"/><line style="stroke:#005A9E;stroke-width:2.0;" x1="1744.5" x2="1744.5" y1="841.5469" y2="854.5469"/><line style="stroke:#005A9E;stroke-width:2.0;" x1="1703.5" x2="1744.5" y1="854.5469" y2="854.5469"/><polygon fill="#005A9E" points="1713.5,850.5469,1703.5,854.5469,1713.5,858.5469,1709.5,854.5469" style="stroke:#005A9E;stroke-width:1.0;"/><text fill="#000000" font-family="sans-serif" font-size="13" lengthAdjust="spacing" textLength="283" x="1709.5" y="836.481">Compute similarity scores and Top-N results</text><polygon fill="#005A9E" points="334.5,879.6797,324.5,883.6797,334.5,887.6797,330.5,883.6797" style="stroke:#005A9E;stroke-width:1.0;"/><line style="stroke:#005A9E;stroke-width:2.0;" x1="328.5" x2="1701.5" y1="883.6797" y2="883.6797"/><text fill="#000000" font-family="sans-serif" font-size="13" lengthAdjust="spacing" textLength="258" x="340.5" y="878.6138">Return context-aware recommendations</text><polygon fill="#005A9E" points="58.5,908.8125,48.5,912.8125,58.5,916.8125,54.5,912.8125" style="stroke:#005A9E;stroke-width:1.0;"/><line style="stroke:#005A9E;stroke-width:2.0;" x1="52.5" x2="322.5" y1="912.8125" y2="912.8125"/><text fill="#000000" font-family="sans-serif" font-size="13" lengthAdjust="spacing" textLength="252" x="64.5" y="907.7466">Display personalized recommendations</text><rect fill="#EEEEEE" height="3" style="stroke:#EEEEEE;stroke-width:1.0;" width="2077" x="0" y="941.3789"/><line style="stroke:#000000;stroke-width:1.0;" x1="0" x2="2077" y1="941.3789" y2="941.3789"/><line style="stroke:#000000;stroke-width:1.0;" x1="0" x2="2077" y1="944.3789" y2="944.3789"/><rect fill="#EEEEEE" height="23.1328" style="stroke:#000000;stroke-width:2.0;" width="200" x="938.5" y="930.8125"/><text fill="#000000" font-family="sans-serif" font-size="13" font-weight="bold" lengthAdjust="spacing" textLength="181" x="944.5" y="946.8794">Optional Feedback Loop</text><path d="M10,970.9453 L74,970.9453 L74,978.0781 L64,988.0781 L10,988.0781 L10,970.9453 " fill="#EEEEEE" style="stroke:#000000;stroke-width:1.5;"/><rect fill="none" height="148.4688" style="stroke:#000000;stroke-width:1.5;" width="2057" x="10" y="970.9453"/><text fill="#000000" font-family="sans-serif" font-size="13" font-weight="bold" lengthAdjust="spacing" textLength="19" x="25" y="984.0122">alt</text><text fill="#000000" font-family="sans-serif" font-size="11" font-weight="bold" lengthAdjust="spacing" textLength="161" x="89" y="983.1558">[User provides feedback]</text><polygon fill="#005A9E" points="311.5,1005.2109,321.5,1009.2109,311.5,1013.2109,315.5,1009.2109" style="stroke:#005A9E;stroke-width:1.0;"/><line style="stroke:#005A9E;stroke-width:2.0;" x1="47.5" x2="317.5" y1="1009.2109" y2="1009.2109"/><text fill="#000000" font-family="sans-serif" font-size="13" lengthAdjust="spacing" textLength="158" x="54.5" y="1004.145">Provide feedback / rating</text><polygon fill="#005A9E" points="1690.5,1034.3438,1700.5,1038.3438,1690.5,1042.3438,1694.5,1038.3438" style="stroke:#005A9E;stroke-width:1.0;"/><line style="stroke:#005A9E;stroke-width:2.0;" x1="323.5" x2="1696.5" y1="1038.3438" y2="1038.3438"/><text fill="#000000" font-family="sans-serif" font-size="13" lengthAdjust="spacing" textLength="112" x="330.5" y="1033.2778">Forward feedback</text><polygon fill="#005A9E" points="1110.5,1063.4766,1100.5,1067.4766,1110.5,1071.4766,1106.5,1067.4766" style="stroke:#005A9E;stroke-width:1.0;"/><line style="stroke:#005A9E;stroke-width:2.0;" x1="1104.5" x2="1701.5" y1="1067.4766" y2="1067.4766"/><text fill="#000000" font-family="sans-serif" font-size="13" lengthAdjust="spacing" textLength="383" x="1116.5" y="1062.4106">Trigger incremental embedding update (or schedule retrain)</text><polygon fill="#005A9E" points="1987.5,1092.6094,1997.5,1096.6094,1987.5,1100.6094,1991.5,1096.6094" style="stroke:#005A9E;stroke-width:1.0;"/><line style="stroke:#005A9E;stroke-width:2.0;" x1="1702.5" x2="1993.5" y1="1096.6094" y2="1096.6094"/><text fill="#000000" font-family="sans-serif" font-size="13" lengthAdjust="spacing" textLength="261" x="1709.5" y="1091.5435">Store feedback and updated interactions</text><line style="stroke:#000000;stroke-width:1.0;stroke-dasharray:2.0,2.0;" x1="10" x2="2067" y1="1105.6094" y2="1105.6094"/><text fill="#000000" font-family="sans-serif" font-size="11" font-weight="bold" lengthAdjust="spacing" textLength="90" x="15" y="1115.8198">[No feedback]</text><rect fill="#EEEEEE" height="3" style="stroke:#EEEEEE;stroke-width:1.0;" width="2077" x="0" y="1146.9805"/><line style="stroke:#000000;stroke-width:1.0;" x1="0" x2="2077" y1="1146.9805" y2="1146.9805"/><line style="stroke:#000000;stroke-width:1.0;" x1="0" x2="2077" y1="1149.9805" y2="1149.9805"/><rect fill="#EEEEEE" height="23.1328" style="stroke:#000000;stroke-width:2.0;" width="62" x="1007.5" y="1136.4141"/><text fill="#000000" font-family="sans-serif" font-size="13" font-weight="bold" lengthAdjust="spacing" textLength="43" x="1013.5" y="1152.481">Notes</text><path d="M476,1174.5469 L476,1229.5469 L1456,1229.5469 L1456,1184.5469 L1446,1174.5469 L476,1174.5469 " fill="#FEFFDD" style="stroke:#181818;stroke-width:0.5;"/><path d="M1446,1174.5469 L1446,1184.5469 L1456,1184.5469 L1446,1174.5469 " fill="#FEFFDD" style="stroke:#181818;stroke-width:0.5;"/><text fill="#000000" font-family="sans-serif" font-size="13" lengthAdjust="spacing" textLength="450" x="734.75" y="1191.6138">Data is preprocessed, transformed into a graph, encoded using GNNs,</text><text fill="#000000" font-family="sans-serif" font-size="13" lengthAdjust="spacing" textLength="416" x="734.75" y="1206.7466">optimized via contrastive learning, and finally used for generating</text><text fill="#000000" font-family="sans-serif" font-size="13" lengthAdjust="spacing" textLength="216" x="734.75" y="1221.8794">context-aware recommendations.</text><!--SRC=[ZLLDR-D63BthLn2xG95WdIRTHNVR02bWonymu7eDExxbCfPeUHffHfqPnN6B_lU-6KcEREyM3N98Xe_a8_b8EUbofXN_MR5Ac8PIP4OKzzHFHUda2zF4Y797iLRE21jUbfpeec2L2YUred6kzr5adwKg1Lnf8vBdpEXAfR7EjQ7tu_3JGOZ4QRDo1oGMUxQwu8xHjbJ-ZeZwnkXz4-RkxkV-hoCypkIMPrBnG9kKpNUjvpH6lun_6lU1M0ZZP29BeTotGtG1_oVA6CqvnlZqwVFdbldZJYRFYgsbZtWQwDTlv_E6x-QPQtTPo_ZBk8-MDjRJe5_wSGpBieORnOO-taN_H55eEwqj7eIbTLI-LK3lLWVhkA2fScos8k4dTRMUqamSs5o_2_ZfgSDGE44BmwNH2IgKAdjIl-kqoZd0XujJ-556rfagyS8vWK_YC_Xy3fsLXYqh9shuZ8LHo5CxpEUd7bs5jiYJ5F7irE5CnYELGJK1kHn5U1GRORabVXisW5_TanesfhhCGHGzFBH6jA-i73qyH6kw-GqjkwTLjIcaewG129KIgjgo2HhtQIBq6U3X0c2m8IFsBRmIENsWnTTf3VIPBjlkqmqN8SJWdiRiabtN_mVQIOl1omJ_X30D6FdYd8NgaTAc4BdyYtk1trRc444NEuaRRlNmAiDfCDCMWif2WvBEP0FHou5xefEu9RfaPoHZMFmAVhwEEf3IATl0WzECRUFX6GmgcQUOH5KYDzEEmL9dh5XNjdPkmVCv6g7DNfZqZHWurw30xa9VHz44cZ2tWIR8O7n2BZQSfa1OkggmHRSI6tFRjFgwzObdJQywS5-Dg3A8pT6BvBqzYkPSiJvvF6lZVCK9BZ2NRgmNAS9uMq-z-OCJ_vTj79UZj-9r4o0bJ_Z64oPpKdPDvMmNcfARcIr75pDBK94CKmWXjooyA6m3zGnYNM0Lc2povy98To2RQDECzb6NDtCmiLNkMY-_BKXG6TNAzqQW20QiIyus-xA-nyVAbhauKCd6QXKKd5wWVNc-Znw0xU3KVvzefdNfQnEvgoyYzkb5UkLj6mXEAD5nZHUr-MY537s3L5R3fkUDFubIrnV4z6XabY6TL8bXhmUGEWwtLVOLjiecE_Qd2_LWr59TToBvKQomqXqwlgcrTuhOM0oHrELpZYCsrwU45BuQ12OxXq3ruGSRPB5mnczxdWhiOeHMXYRwJutrFGlU-WLL31SzNDLmagJrTwsvIfps2AoLnNqeQaQQHBr-FK9enFMIz3MZBRP7qPjIpmMUDwlH7YVCCJzuFQVr-McqYb3HV-hcHrz9A3tw5m00]--></g></svg>