<?xml version="1.0" encoding="us-ascii" standalone="no"?><svg xmlns="http://www.w3.org/2000/svg" xmlns:xlink="http://www.w3.org/1999/xlink" contentStyleType="text/css" height="1175px" preserveAspectRatio="none" style="width:678px;height:1175px;background:#FFFFFF;" version="1.1" viewBox="0 0 678 1175" width="678px" zoomAndPan="magnify"><defs/><g><ellipse cx="310.5" cy="16" fill="#222222" rx="10" ry="10" style="stroke:#222222;stroke-width:1.0;"/><g id="Idle"><rect fill="#E8F1FA" height="50" rx="12.5" ry="12.5" style="stroke:#005A9E;stroke-width:0.5;" width="50" x="285.5" y="103"/><line style="stroke:#005A9E;stroke-width:0.5;" x1="285.5" x2="335.5" y1="129.2969" y2="129.2969"/><text fill="#003366" font-family="sans-serif" font-size="14" lengthAdjust="spacing" textLength="24" x="298.5" y="120.9951">Idle</text></g><g id="Context_Collection"><rect fill="#E8F1FA" height="50" rx="12.5" ry="12.5" style="stroke:#005A9E;stroke-width:0.5;" width="149" x="7" y="230"/><line style="stroke:#005A9E;stroke-width:0.5;" x1="7" x2="156" y1="256.2969" y2="256.2969"/><text fill="#003366" font-family="sans-serif" font-size="14" lengthAdjust="spacing" textLength="129" x="17" y="247.9951">Context_Collection</text></g><g id="Preprocessing"><rect fill="#E8F1FA" height="50" rx="12.5" ry="12.5" style="stroke:#005A9E;stroke-width:0.5;" width="120" x="25.5" y="357"/><line style="stroke:#005A9E;stroke-width:0.5;" x1="25.5" x2="145.5" y1="383.2969" y2="383.2969"/><text fill="#003366" font-family="sans-serif" font-size="14" lengthAdjust="spacing" textLength="100" x="35.5" y="374.9951">Preprocessing</text></g><g id="Graph_Construction"><rect fill="#E8F1FA" height="50" rx="12.5" ry="12.5" style="stroke:#005A9E;stroke-width:0.5;" width="158" x="22.5" y="484"/><line style="stroke:#005A9E;stroke-width:0.5;" x1="22.5" x2="180.5" y1="510.2969" y2="510.2969"/><text fill="#003366" font-family="sans-serif" font-size="14" lengthAdjust="spacing" textLength="138" x="32.5" y="501.9951">Graph_Construction</text></g><g id="Embedding_Generation"><rect fill="#E8F1FA" height="50" rx="12.5" ry="12.5" style="stroke:#005A9E;stroke-width:0.5;" width="183" x="73" y="611"/><line style="stroke:#005A9E;stroke-width:0.5;" x1="73" x2="256" y1="637.2969" y2="637.2969"/><text fill="#003366" font-family="sans-serif" font-size="14" lengthAdjust="spacing" textLength="163" x="83" y="628.9951">Embedding_Generation</text></g><g id="Contrastive_Optimization"><rect fill="#E8F1FA" height="50" rx="12.5" ry="12.5" style="stroke:#005A9E;stroke-width:0.5;" width="191" x="70" y="738"/><line style="stroke:#005A9E;stroke-width:0.5;" x1="70" x2="261" y1="764.2969" y2="764.2969"/><text fill="#003366" font-family="sans-serif" font-size="14" lengthAdjust="spacing" textLength="171" x="80" y="755.9951">Contrastive_Optimization</text></g><g id="Recommendation_Generation"><rect fill="#E8F1FA" height="50" rx="12.5" ry="12.5" style="stroke:#005A9E;stroke-width:0.5;" width="227" x="52" y="865"/><line style="stroke:#005A9E;stroke-width:0.5;" x1="52" x2="279" y1="891.2969" y2="891.2969"/><text fill="#003366" font-family="sans-serif" font-size="14" lengthAdjust="spacing" textLength="207" x="62" y="882.9951">Recommendation_Generation</text></g><g id="Feedback_Collection"><rect fill="#E8F1FA" height="50" rx="12.5" ry="12.5" style="stroke:#005A9E;stroke-width:0.5;" width="163" x="280" y="992"/><line style="stroke:#005A9E;stroke-width:0.5;" x1="280" x2="443" y1="1018.2969" y2="1018.2969"/><text fill="#003366" font-family="sans-serif" font-size="14" lengthAdjust="spacing" textLength="143" x="290" y="1009.9951">Feedback_Collection</text></g><g id="Model_Update"><rect fill="#E8F1FA" height="50" rx="12.5" ry="12.5" style="stroke:#005A9E;stroke-width:0.5;" width="119" x="388" y="1119"/><line style="stroke:#005A9E;stroke-width:0.5;" x1="388" x2="507" y1="1145.2969" y2="1145.2969"/><text fill="#003366" font-family="sans-serif" font-size="14" lengthAdjust="spacing" textLength="99" x="398" y="1136.9951">Model_Update</text></g><ellipse cx="260.5" cy="255" fill="none" rx="11" ry="11" style="stroke:#222222;stroke-width:1.0;"/><ellipse cx="260.5" cy="255" fill="#222222" rx="6" ry="6" style="stroke:#222222;stroke-width:1.0;"/><!--link *start* to Idle--><g id="link_*start*_Idle"><path d="M310.5,26 C310.5,42.63 310.5,72.66 310.5,96.87 " fill="none" id="*start*-to-Idle" style="stroke:#007ACC;stroke-width:1.0;"/><polygon fill="#007ACC" points="310.5,102.87,314.5,93.87,310.5,97.87,306.5,93.87,310.5,102.87" style="stroke:#007ACC;stroke-width:1.0;"/><text fill="#000000" font-family="sans-serif" font-size="13" lengthAdjust="spacing" textLength="101" x="311.5" y="69.0669">System Startup</text></g><!--link Idle to Context_Collection--><g id="link_Idle_Context_Collection"><path d="M285.5,128.41 C242.92,128.79 156.07,135.78 105.5,183 C92.57,195.08 87.6528,208.4531 84.9028,223.8831 " fill="none" id="Idle-to-Context_Collection" style="stroke:#007ACC;stroke-width:1.0;"/><polygon fill="#007ACC" points="83.85,229.79,89.3671,221.6315,84.7273,224.8676,81.4912,220.2278,83.85,229.79" style="stroke:#007ACC;stroke-width:1.0;"/><text fill="#000000" font-family="sans-serif" font-size="13" lengthAdjust="spacing" textLength="138" x="106.5" y="196.0669">User Initiates Session</text></g><!--link Context_Collection to Preprocessing--><g id="link_Context_Collection_Preprocessing"><path d="M82.27,280.1 C82.98,302.24 83.8274,328.8631 84.5374,350.9731 " fill="none" id="Context_Collection-to-Preprocessing" style="stroke:#007ACC;stroke-width:1.0;"/><polygon fill="#007ACC" points="84.73,356.97,88.4391,347.8463,84.5695,351.9726,80.4432,348.103,84.73,356.97" style="stroke:#007ACC;stroke-width:1.0;"/><text fill="#000000" font-family="sans-serif" font-size="13" lengthAdjust="spacing" textLength="132" x="85.5" y="323.0669">Collect Context Data</text></g><!--link Preprocessing to Graph_Construction--><g id="link_Preprocessing_Graph_Construction"><path d="M88.58,407.1 C91.42,429.24 94.8282,455.9086 97.6582,478.0186 " fill="none" id="Preprocessing-to-Graph_Construction" style="stroke:#007ACC;stroke-width:1.0;"/><polygon fill="#007ACC" points="98.42,483.97,101.245,474.535,97.7852,479.0105,93.3097,475.5507,98.42,483.97" style="stroke:#007ACC;stroke-width:1.0;"/><text fill="#000000" font-family="sans-serif" font-size="13" lengthAdjust="spacing" textLength="142" x="95.5" y="450.0669">Prepare Cleaned Input</text></g><!--link Graph_Construction to Embedding_Generation--><g id="link_Graph_Construction_Embedding_Generation"><path d="M113.65,534.1 C124.8,556.24 138.5503,583.5017 149.6903,605.6117 " fill="none" id="Graph_Construction-to-Embedding_Generation" style="stroke:#007ACC;stroke-width:1.0;"/><polygon fill="#007ACC" points="152.39,610.97,151.9126,601.1327,150.1402,606.5048,144.7682,604.7324,152.39,610.97" style="stroke:#007ACC;stroke-width:1.0;"/><text fill="#000000" font-family="sans-serif" font-size="13" lengthAdjust="spacing" textLength="134" x="138.5" y="577.0669">Build User-POI Graph</text></g><!--link Embedding_Generation to Contrastive_Optimization--><g id="link_Embedding_Generation_Contrastive_Optimization"><path d="M163.14,661.32 C162.55,675.03 162.07,692.47 162.5,708 C162.77,717.76 162.9665,722.5104 163.5165,731.8304 " fill="none" id="Embedding_Generation-to-Contrastive_Optimization" style="stroke:#007ACC;stroke-width:1.0;"/><polygon fill="#007ACC" points="163.87,737.82,167.3329,728.6,163.5754,732.8287,159.3468,729.0713,163.87,737.82" style="stroke:#007ACC;stroke-width:1.0;"/><text fill="#000000" font-family="sans-serif" font-size="13" lengthAdjust="spacing" textLength="171" x="163.5" y="704.0669">Generate Two Graph Views</text></g><!--link Contrastive_Optimization to Recommendation_Generation--><g id="link_Contrastive_Optimization_Recommendation_Generation"><path d="M165.5,788.1 C165.5,810.24 165.5,836.86 165.5,858.97 " fill="none" id="Contrastive_Optimization-to-Recommendation_Generation" style="stroke:#007ACC;stroke-width:1.0;"/><polygon fill="#007ACC" points="165.5,864.97,169.5,855.97,165.5,859.97,161.5,855.97,165.5,864.97" style="stroke:#007ACC;stroke-width:1.0;"/><text fill="#000000" font-family="sans-serif" font-size="13" lengthAdjust="spacing" textLength="167" x="166.5" y="831.0669">Learn Robust Embeddings</text></g><!--link Recommendation_Generation to Feedback_Collection--><g id="link_Recommendation_Generation_Feedback_Collection"><path d="M157.74,915.06 C154.49,930.03 153.47,948.87 163.5,962 C178.04,981.04 226.0618,993.8792 273.9618,1002.8192 " fill="none" id="Recommendation_Generation-to-Feedback_Collection" style="stroke:#007ACC;stroke-width:1.0;"/><polygon fill="#007ACC" points="279.86,1003.92,271.7467,998.3367,274.9449,1003.0026,270.2789,1006.2009,279.86,1003.92" style="stroke:#007ACC;stroke-width:1.0;"/><text fill="#000000" font-family="sans-serif" font-size="13" lengthAdjust="spacing" textLength="170" x="164.5" y="958.0669">Display Recommendations</text></g><!--link Feedback_Collection to Model_Update--><g id="link_Feedback_Collection_Model_Update"><path d="M366.29,1042.12 C369.95,1056.58 376.02,1074.84 385.5,1089 C392.97,1100.15 398.7194,1106.5266 408.8194,1115.0266 " fill="none" id="Feedback_Collection-to-Model_Update" style="stroke:#007ACC;stroke-width:1.0;"/><polygon fill="#007ACC" points="413.41,1118.89,409.0996,1110.0344,409.5845,1115.6705,403.9484,1116.1553,413.41,1118.89" style="stroke:#007ACC;stroke-width:1.0;"/><text fill="#000000" font-family="sans-serif" font-size="13" lengthAdjust="spacing" textLength="120" x="386.5" y="1085.0669">Feedback Provided</text></g><!--link Model_Update to Idle--><g id="link_Model_Update_Idle"><path d="M483.21,1118.91 C493.54,1110.48 504.03,1100.27 511.5,1089 C529.75,1061.46 533.5,1051.04 533.5,1018 C533.5,254 533.5,254 533.5,254 C533.5,164.13 399.9284,138.925 341.6084,132.025 " fill="none" id="Model_Update-to-Idle" style="stroke:#007ACC;stroke-width:1.0;"/><polygon fill="#007ACC" points="335.65,131.32,344.1177,136.3497,340.6154,131.9075,345.0576,128.4051,335.65,131.32" style="stroke:#007ACC;stroke-width:1.0;"/><text fill="#000000" font-family="sans-serif" font-size="13" lengthAdjust="spacing" textLength="136" x="534.5" y="640.5669">Save &amp; Return to Idle</text></g><!--link Feedback_Collection to Idle--><g id="link_Feedback_Collection_Idle"><path d="M361.5,991.57 C361.5,966.37 361.5,925.94 361.5,891 C361.5,254 361.5,254 361.5,254 C361.5,216.73 344.9632,182.6569 330.0532,158.3069 " fill="none" id="Feedback_Collection-to-Idle" style="stroke:#007ACC;stroke-width:1.0;"/><polygon fill="#007ACC" points="326.92,153.19,328.2085,162.9542,329.531,157.4541,335.0311,158.7766,326.92,153.19" style="stroke:#007ACC;stroke-width:1.0;"/><text fill="#000000" font-family="sans-serif" font-size="13" lengthAdjust="spacing" textLength="147" x="362.5" y="577.0669">No Feedback / Timeout</text></g><!--link Idle to *end*--><g id="link_Idle_*end*"><path d="M285.46,147.13 C274.69,156.49 263.27,168.89 257.5,183 C249.19,203.33 252.403,223.8972 256.033,238.0872 " fill="none" id="Idle-to-*end*" style="stroke:#007ACC;stroke-width:1.0;"/><polygon fill="#007ACC" points="257.52,243.9,259.1647,234.1894,256.2808,239.056,251.4143,236.1721,257.52,243.9" style="stroke:#007ACC;stroke-width:1.0;"/><text fill="#000000" font-family="sans-serif" font-size="13" lengthAdjust="spacing" textLength="76" x="258.5" y="196.0669">System Exit</text></g><!--SRC=[TP9RImCn48NVyoi611-4ebAyzK6eQrSAth2jBo8bROOQt4sMoMph1V-xa-rsQwNDuvaptvaa4zwjApJf72Pw-ZuZNpgJ-CmJxANLKQ5n1DQCyAq0hlvxU-VfSTgD5Ky6gLQFZaww5prHK- -uqThjqrFHkaH-qOXdtIGHyMd998S4noVgHwcNWrTejIwXRpA43Wm-0sCE0zR4PQ4gDPOJIS0F7WimmobRxyGy2eBfEyjM1Wymm12aeBPu8-AHi20_ZIOta-wwl4B3jMQjDasnxOPqyIOi5vZALNAqQK98CjGEZGnHbAosM2EXbq_G6E6DRr0khcl6LMapKzsXzVZGN-QehTxL0v0ERESuVYZOvlPh1QgT2CE5NsBWsU8Yg9qz4VY4Kv_dw4mbROvsYvgSVDQa3BmUFwZTFP6O8fguPPkVT6r3aUdFVtb1gMtsYBdp1hFng33nIfs6Ac_kvzQWKHk6lxkZvmZx4iIbJC- -qdVdr5ttVXrn24ERevUlN6zUND1cBtiVbdy1]--></g></svg>